<svg width="508" height="508" viewBox="0 0 508 508" fill="none" xmlns="http://www.w3.org/2000/svg">
<path d="M508 254C508 394.28 394.28 508 254 508C113.72 508 0 394.28 0 254C0 113.72 113.72 0 254 0C394.28 0 508 113.72 508 254Z" fill="#003144"/>
<path d="M236 106H272V419C272 428.941 263.941 437 254 437C244.059 437 236 428.941 236 419V106Z" fill="#FFBF00"/>
<path d="M149 106C139.059 106 131 97.9411 131 88C131 78.0589 139.059 70 149 70H359C368.941 70 377 78.0589 377 88C377 97.9411 368.941 106 359 106H149Z" fill="#FFBF00"/>
<path d="M222.398 185.901C200.597 204.123 189.662 233.977 189.662 266.715C189.662 329.346 249.928 375.121 325.701 358.259C334.661 356.265 344 362.791 344 372.604C344 379.168 339.525 385.084 332.908 386.556C237.414 407.8 156 349.95 156 266.715C156 225.912 170.619 187.19 200.699 162.97C230.934 138.626 275.629 129.856 333.756 146.715C339.846 148.482 344 154.105 344 160.387C344 170.406 334.175 176.977 325.062 174.275C277.518 160.179 243.995 167.849 222.398 185.901Z" fill="#FFBF00"/>
<path d="M45.7538 368.273C45.1637 367.243 44.7671 366.203 44.5641 365.151C44.361 364.1 44.3448 363.079 44.5155 362.09C44.7045 361.106 45.0746 360.21 45.6259 359.402C46.1839 358.606 46.9372 357.936 47.8858 357.392C48.8112 356.862 49.7593 356.572 50.73 356.523C51.7123 356.467 52.6725 356.601 53.6106 356.924C54.5554 357.258 55.4301 357.779 56.2347 358.486C57.046 359.204 57.74 360.067 58.3168 361.073C58.7345 361.802 59.0522 362.557 59.2698 363.339C59.499 364.114 59.6348 364.874 59.6771 365.618C59.726 366.374 59.6896 367.048 59.568 367.64L56.3029 367.252C56.39 366.788 56.434 366.301 56.435 365.794C56.4476 365.279 56.3816 364.748 56.237 364.201C56.104 363.647 55.8651 363.07 55.5204 362.468C55.2287 361.959 54.8626 361.508 54.4222 361.115C53.9884 360.734 53.5084 360.432 52.9822 360.211C52.456 359.991 51.9011 359.894 51.3173 359.921C50.7336 359.948 50.1583 360.124 49.5914 360.449C49.013 360.78 48.5678 361.197 48.2559 361.698C47.9555 362.193 47.7685 362.738 47.6949 363.334C47.6328 363.923 47.679 364.526 47.8336 365.145C47.9882 365.763 48.2312 366.361 48.5627 366.94C48.9141 367.553 49.3067 368.05 49.7405 368.432C50.1742 368.813 50.6187 369.119 51.0738 369.35C51.5289 369.581 51.9434 369.782 52.3174 369.952L50.8224 372.652C50.3525 372.476 49.8048 372.191 49.1791 371.796C48.5601 371.413 47.9443 370.929 47.3317 370.342C46.7306 369.749 46.2046 369.06 45.7538 368.273Z" fill="#FFBF00"/>
<path d="M54.7603 382.498L66.1611 374.373L70.6649 380.692C71.2917 381.572 71.6737 382.429 71.8107 383.265C71.9664 384.103 71.8873 384.888 71.5735 385.62C71.2782 386.354 70.7614 386.984 70.0231 387.51C69.2956 388.029 68.5087 388.303 67.6624 388.333C66.8238 388.374 66.0079 388.194 65.2148 387.794C64.4402 387.396 63.7705 386.801 63.2055 386.008L60.5822 382.328L56.6408 385.137L54.7603 382.498ZM60.4365 390.462L62.9598 383.114L65.4215 385.706L62.7232 393.671L60.4365 390.462ZM62.6995 380.819L65.1023 384.19C65.3267 384.505 65.5969 384.746 65.9129 384.914C66.2289 385.082 66.559 385.166 66.9031 385.166C67.258 385.159 67.593 385.043 67.9078 384.818C68.201 384.609 68.3981 384.346 68.4992 384.028C68.6111 383.703 68.6301 383.362 68.5561 383.005C68.482 382.649 68.3212 382.297 68.0736 381.949L65.7288 378.66L62.6995 380.819Z" fill="#FFBF00"/>
<path d="M70.0654 402.892L72.3137 400.936L74.5978 403.562L80.6636 398.285L78.3794 395.659L80.6277 393.703L87.4407 401.534L85.1924 403.49L82.8952 400.85L76.8294 406.127L79.1266 408.767L76.8784 410.723L70.0654 402.892Z" fill="#FFBF00"/>
<path d="M85.533 419.882L95.1785 409.735L100.991 415.26C101.668 415.903 102.134 416.622 102.39 417.417C102.656 418.222 102.709 419.027 102.55 419.832C102.391 420.638 102.013 421.355 101.416 421.983C100.773 422.66 100.026 423.108 99.1729 423.327C98.3294 423.537 97.4707 423.521 96.5969 423.28C95.7328 423.047 94.9432 422.591 94.2281 421.911L91.1114 418.948L87.9973 422.224L85.533 419.882ZM93.121 416.747L95.8463 419.337C96.1555 419.631 96.4909 419.84 96.8524 419.963C97.2139 420.086 97.5636 420.114 97.9014 420.049C98.249 419.993 98.5468 419.835 98.7948 419.574C99.0336 419.323 99.1584 419.037 99.1691 418.716C99.1895 418.404 99.12 418.08 98.9606 417.745C98.8012 417.409 98.5669 417.095 98.2577 416.801L95.5324 414.21L93.121 416.747Z" fill="#FFBF00"/>
<path d="M106.52 438.547L113.31 429.893L109.156 426.633L111.008 424.273L122.069 432.952L120.217 435.313L115.985 431.992L109.195 440.646L106.52 438.547Z" fill="#FFBF00"/>
<path d="M122.076 450.11L129.613 438.312L136.152 442.49C137.063 443.072 137.737 443.724 138.177 444.448C138.635 445.168 138.855 445.926 138.837 446.721C138.838 447.513 138.594 448.29 138.106 449.054C137.625 449.807 136.997 450.356 136.224 450.7C135.461 451.052 134.637 451.19 133.752 451.114C132.885 451.035 132.041 450.733 131.221 450.209L127.412 447.776L124.806 451.855L122.076 450.11ZM130.317 455.376L129.911 447.616L133.163 449.101L133.637 457.497L130.317 455.376ZM128.812 445.585L132.3 447.814C132.626 448.022 132.967 448.145 133.323 448.182C133.679 448.22 134.016 448.174 134.336 448.046C134.662 447.907 134.929 447.674 135.137 447.348C135.331 447.045 135.416 446.727 135.391 446.394C135.373 446.051 135.263 445.727 135.061 445.424C134.859 445.121 134.578 444.855 134.219 444.625L130.814 442.45L128.812 445.585Z" fill="#FFBF00"/>
<path d="M141.842 462.277L154.118 452.808L156.918 454.23L156.502 469.719L153.381 468.135L153.605 459.209C153.625 458.876 153.636 458.56 153.638 458.262C153.651 457.969 153.668 457.686 153.687 457.412C153.725 457.132 153.762 456.852 153.8 456.572C153.837 456.292 153.881 456.015 153.93 455.741L154.599 456.058C154.383 456.277 154.17 456.491 153.96 456.698C153.756 456.894 153.54 457.083 153.313 457.267C153.085 457.45 152.857 457.634 152.63 457.817C152.408 457.989 152.177 458.178 151.937 458.385L144.892 463.825L141.842 462.277ZM145.747 461.434L147.887 459.649L155.02 463.27L154.379 465.815L145.747 461.434Z" fill="#FFBF00"/>
<path d="M165.52 473.706L170.569 460.648L177.229 463.223C178.41 463.68 179.394 464.26 180.179 464.964C180.965 465.668 181.559 466.441 181.963 467.283C182.379 468.13 182.601 469.017 182.629 469.942C182.662 470.856 182.507 471.754 182.166 472.637C181.82 473.532 181.325 474.313 180.681 474.979C180.043 475.633 179.285 476.133 178.407 476.48C177.542 476.832 176.576 477.001 175.509 476.989C174.459 476.969 173.349 476.733 172.18 476.281L165.52 473.706ZM169.528 472.768L169.344 471.968L173.169 473.447C173.902 473.73 174.575 473.876 175.187 473.884C175.798 473.892 176.346 473.789 176.829 473.575C177.311 473.362 177.726 473.065 178.074 472.684C178.426 472.291 178.695 471.853 178.883 471.368C179.07 470.883 179.164 470.382 179.163 469.867C179.162 469.352 179.054 468.854 178.841 468.371C178.627 467.888 178.291 467.444 177.834 467.038C177.381 466.62 176.787 466.269 176.054 465.985L172.173 464.485L172.889 464.075L169.528 472.768Z" fill="#FFBF00"/>
<path d="M190.221 482.571L193.957 469.078L205.522 472.281L204.748 475.076L196.364 472.754L194.175 480.656L202.753 483.032L201.979 485.826L190.221 482.571ZM193.449 477.509L194.186 474.849L203.187 477.341L202.45 480.001L193.449 477.509Z" fill="#FFBF00"/>
<path d="M212.75 488.285L215.165 474.494L222.809 475.833C223.872 476.019 224.746 476.362 225.431 476.861C226.13 477.349 226.625 477.963 226.915 478.704C227.22 479.435 227.294 480.246 227.138 481.139C226.984 482.019 226.616 482.767 226.035 483.383C225.466 484.001 224.759 484.445 223.913 484.717C223.082 484.977 222.187 485.024 221.228 484.856L216.776 484.076L215.941 488.844L212.75 488.285ZM222.383 489.972L219.021 482.967L222.594 483.085L226.264 490.651L222.383 489.972ZM217.225 481.515L221.303 482.229C221.683 482.296 222.045 482.278 222.388 482.176C222.731 482.073 223.025 481.901 223.27 481.66C223.518 481.406 223.675 481.088 223.742 480.707C223.804 480.353 223.759 480.027 223.608 479.729C223.46 479.419 223.234 479.163 222.931 478.961C222.628 478.759 222.266 478.621 221.846 478.548L217.866 477.851L217.225 481.515Z" fill="#FFBF00"/>
</svg>
